<svg version="1.0" xmlns="http://www.w3.org/2000/svg" width="1600" height="1600" viewBox="0 0 1200 1200"><g fill="#fff"><path d="M585.5 38.7C501.9 42.6 428.3 61.3 356 97.1 202.1 173.2 90.7 314.9 53.6 481.8c-15.2 68.1-17.7 141.1-7.1 210.7 34.3 225.4 201.5 409 423 464.3 30.7 7.7 59.3 12.4 92.5 15.4 18.5 1.6 74.2 1.6 92-.1 56.6-5.3 103.3-15.7 151.7-33.7 215.6-80.3 362.1-283.3 369.2-511.4 1.9-63.5-4.9-120.2-21.4-178-21.8-76.2-58.6-145.1-111.1-208.5-13.8-16.7-52.1-55-68.9-68.9C891.7 103.6 799 61.3 696 45c-34.2-5.4-77.7-7.9-110.5-6.3zm70 54.8c96.3 9.3 184.3 43.3 261 101 36.9 27.7 71.6 62 99.6 98.5 30.7 39.8 56.8 87 74.4 134.6 38.1 102.3 42.2 216.8 11.6 321.9-24.4 83.9-67.9 157.3-130.1 219.6-27.3 27.3-50.5 46.3-81 66.5-72.4 47.8-150.4 75-239.5 83.6-20 1.9-72.3 1.6-93-.6-63.8-6.7-122.3-23.4-177.1-50.5-24.2-12-35.1-18.2-55.8-31.8-50.4-33.2-92.6-72.7-128.8-120.6C116.3 809.2 80.3 674.6 97.1 542c12.3-97.9 51.8-188.6 115.9-266 13.3-16.1 48.9-51.7 65-65 86.4-71.5 188.4-112 299.9-119 18.4-1.2 58-.4 77.6 1.5z"/><path d="M430 354.5V412h29v-86h306v86h29V297H430v57.5zm454.5 78.2c-4.8 2.5-8.3 6.3-10 10.7-1.4 3.6-1.5 11.3-1.3 58.2l.3 54.1 2.9 4.1c3.6 5.2 11.2 9.2 17.5 9.2 9.9-.1 19-7.5 21.1-17.3.8-3.8 1-20.7.8-55.4-.3-46.4-.4-50-2.2-53.3-4.5-8.4-10.4-12-19.8-12-3.7.1-7.5.7-9.3 1.7zM295 537.1c-38.2 46.8-70.3 86.6-71.4 88.6-1.4 2.8-1.7 5.2-1.4 10.4.3 5.7.8 7.4 3.4 10.6 5.9 7.4 16.6 10.3 24.9 6.9 1.9-.8 14.9-12.4 29.4-26.3l25.9-24.8 28.9-11.4c43.2-17 41.6-16.1 49.7-27.6 4-5.7 8.5-10.7 10.9-12.3l4.1-2.7 218.3-.3L836 548v-96H364.5L295 537.1z"/><path d="M431 576.9c-5.9 1.8-9.4 4.9-25.5 22.5l-17 18.5-23.4 8c-12.9 4.5-25.2 9.2-27.2 10.5-7.2 4.8-6.5.9-22.4 124-8 62-14.5 115.5-14.5 118.7 0 9 3.8 15.3 11.7 19.3 2.9 1.5 28.6 1.6 299.3 1.6 289.4 0 296.2 0 299.8-1.9 6.9-3.6 12.2-11.3 12.2-17.9 0-1.5-6.7-54.6-14.9-117.9-16.2-124.6-15.4-120.4-22.4-125.7-2-1.5-12.8-5.7-26.3-10.2l-22.9-7.7-8-8.1c-4.4-4.5-13.2-13.6-19.5-20.2-10.2-10.8-12-12.3-16.2-13.3-5.4-1.3-358.5-1.5-362.8-.2zm26.5 114.5c10.4 5.2 16.8 15.2 16.8 26.6 0 11.5-6.1 21.1-16.8 26.8-4.2 2.2-6.3 2.7-13 2.7s-8.8-.5-13.1-2.7c-10.2-5.4-16.5-15.3-16.6-26.1 0-22.7 22.6-37.1 42.7-27.3zm110.7-.7c6.5 2.9 11.3 7.7 14.8 14.5 5.3 10.8 3.7 23.3-4.2 32.3-11.3 12.8-29.6 13.9-42.1 2.5-7-6.4-10-13.1-10.1-22 0-21.2 22.3-35.8 41.6-27.3zm112.3.4c9.2 4.3 16.2 14.2 17.2 24.4 1.2 11.6-5.7 23.9-16.4 29.1-7.5 3.7-18.2 4-25.4.7-13.4-6.1-20.6-21.5-16.5-35.5 2.7-9.3 12.2-18.3 22.1-20.9 4.6-1.2 14-.2 19 2.2zm111.1-.2c19.4 8.6 24 33.8 8.8 48.5-6.1 5.9-11.7 8.1-20.9 8.1-6.3 0-8.9-.5-12.2-2.3-10.2-5.4-16.2-14.1-17.1-24.7-1.8-22.5 20.8-38.7 41.4-29.6zm-390.1 91.5c18.6 9.1 22.8 33.3 8.3 47.8-7.9 7.9-20.1 10.9-30.6 7.4-14.6-4.9-23.7-22.8-18.8-37.2 6.1-17.8 24.7-26 41.1-18zm112 .1c6.4 3.1 10.9 7.9 14.3 15.3 2.1 4.7 2.4 6.5 2 13.1-.6 9.4-2.9 14.2-9.8 20.4-17.5 15.7-44 6.4-49.1-17.2-1.4-6.7.3-14.6 4.4-20.8 9-13.2 24.4-17.6 38.2-10.8zm111.5 0c6 3 11.2 8.1 14.2 13.8 3.3 6.2 3.3 19.3 0 25.7-3.5 6.6-8.6 11.5-15.5 14.5-5.2 2.4-6.9 2.7-13.1 2.3-16.5-1.1-28.1-13.2-28.1-29.3.1-22.3 23-36.9 42.5-27zm110.9-.5c7.2 3.1 14.6 11.4 16.7 18.8 5.5 18.7-7.4 36.7-27.2 38-6.2.4-7.9.1-13.3-2.3-18.6-8.4-23.8-31.6-10.3-46.6 9.4-10.5 21.5-13.3 34.1-7.9zm112.6.4c22.7 11.2 22.5 42.4-.5 54.1-5.1 2.6-15.6 3.1-21.8 1.1-6.7-2.3-14.8-9.6-17.8-16.1-3.6-7.7-3.4-17.3.7-25.3 7.5-15.1 24.5-21 39.4-13.8z"/></g></svg>