<?xml version="1.0" standalone="no"?>
<!DOCTYPE svg PUBLIC "-//W3C//DTD SVG 20010904//EN"
 "http://www.w3.org/TR/2001/REC-SVG-20010904/DTD/svg10.dtd">
<svg version="1.0" xmlns="http://www.w3.org/2000/svg"
 width="1200.000000pt" height="1200.000000pt" viewBox="0 0 1200.000000 1200.000000"
 preserveAspectRatio="xMidYMid meet">
<metadata>
Created by potrace 1.15, written by Peter Selinger 2001-2017
</metadata>
<g transform="translate(0.000000,1200.000000) scale(0.100000,-0.100000)"
fill="white" stroke="none">
<path d="M5855 11613 c-836 -39 -1572 -226 -2295 -584 -1539 -761 -2653 -2178
-3024 -3847 -152 -681 -177 -1411 -71 -2107 343 -2254 2015 -4090 4230 -4643
307 -77 593 -124 925 -154 185 -16 742 -16 920 1 566 53 1033 157 1517 337
2156 803 3621 2833 3692 5114 19 635 -49 1202 -214 1780 -218 762 -586 1451
-1111 2085 -138 167 -521 550 -689 689 -818 680 -1745 1103 -2775 1266 -342
54 -777 79 -1105 63z m700 -548 c963 -93 1843 -433 2610 -1010 369 -277 716
-620 996 -985 307 -398 568 -870 744 -1346 381 -1023 422 -2168 116 -3219
-244 -839 -679 -1573 -1301 -2196 -273 -273 -505 -463 -810 -665 -724 -478
-1504 -750 -2395 -836 -200 -19 -723 -16 -930 6 -638 67 -1223 234 -1771 505
-242 120 -351 182 -558 318 -504 332 -926 727 -1288 1206 -805 1065 -1165
2411 -997 3737 123 979 518 1886 1159 2660 133 161 489 517 650 650 864 715
1884 1120 2999 1190 184 12 580 4 776 -15z"/>
<path d="M4300 8455 l0 -575 145 0 145 0 0 430 0 430 1530 0 1530 0 0 -430 0
-430 145 0 145 0 0 575 0 575 -1820 0 -1820 0 0 -575z"/>
<path d="M8845 7673 c-48 -25 -83 -63 -100 -107 -14 -36 -15 -113 -13 -582 l3
-541 29 -41 c36 -52 112 -92 175 -92 99 1 190 75 211 173 8 38 10 207 8 554
-3 464 -4 500 -22 533 -45 84 -104 120 -198 120 -37 -1 -75 -7 -93 -17z"/>
<path d="M2950 6629 c-382 -468 -703 -866 -714 -886 -14 -28 -17 -52 -14 -104
3 -57 8 -74 34 -106 59 -74 166 -103 249 -69 19 8 149 124 294 263 l259 248
289 114 c432 170 416 161 497 276 40 57 85 107 109 123 l41 27 2183 3 2183 2
0 480 0 480 -2357 0 -2358 0 -695 -851z"/>
<path d="M4310 6231 c-59 -18 -94 -49 -255 -225 l-170 -185 -234 -80 c-129
-45 -252 -92 -272 -105 -72 -48 -65 -9 -224 -1240 -80 -620 -145 -1155 -145
-1187 0 -90 38 -153 117 -193 29 -15 286 -16 2993 -16 2894 0 2962 0 2998 19
69 36 122 113 122 179 0 15 -67 546 -149 1179 -162 1246 -154 1204 -224 1257
-20 15 -128 57 -263 102 l-229 77 -80 81 c-44 45 -132 136 -195 202 -102 108
-120 123 -162 133 -54 13 -3585 15 -3628 2z m265 -1145 c104 -52 168 -152 168
-266 0 -115 -61 -211 -168 -268 -42 -22 -63 -27 -130 -27 -67 0 -88 5 -131 27
-102 54 -165 153 -166 261 0 227 226 371 427 273z m1107 7 c65 -29 113 -77
148 -145 53 -108 37 -233 -42 -323 -113 -128 -296 -139 -421 -25 -70 64 -100
131 -101 220 0 212 223 358 416 273z m1123 -4 c92 -43 162 -142 172 -244 12
-116 -57 -239 -164 -291 -75 -37 -182 -40 -254 -7 -134 61 -206 215 -165 355
27 93 122 183 221 209 46 12 140 2 190 -22z m1111 2 c194 -86 240 -338 88
-485 -61 -59 -117 -81 -209 -81 -63 0 -89 5 -122 23 -102 54 -162 141 -171
247 -18 225 208 387 414 296z m-3901 -915 c186 -91 228 -333 83 -478 -79 -79
-201 -109 -306 -74 -146 49 -237 228 -188 372 61 178 247 260 411 180z m1120
-1 c64 -31 109 -79 143 -153 21 -47 24 -65 20 -131 -6 -94 -29 -142 -98 -204
-175 -157 -440 -64 -491 172 -14 67 3 146 44 208 90 132 244 176 382 108z
m1115 0 c60 -30 112 -81 142 -138 33 -62 33 -193 0 -257 -35 -66 -86 -115
-155 -145 -52 -24 -69 -27 -131 -23 -165 11 -281 132 -281 293 1 223 230 369
425 270z m1109 5 c72 -31 146 -114 167 -188 55 -187 -74 -367 -272 -380 -62
-4 -79 -1 -133 23 -186 84 -238 316 -103 466 94 105 215 133 341 79z m1126 -4
c227 -112 225 -424 -5 -541 -51 -26 -156 -31 -218 -11 -67 23 -148 96 -178
161 -36 77 -34 173 7 253 75 151 245 210 394 138z"/>
</g>
</svg>
